<svg height="400" width="400" style="font-family: sans-serif; font-size: 12px;" xmlns="http://www.w3.org/2000/svg" xmlns:xlink="http://www.w3.org/1999/xlink"><g transform="translate(200,200)"><defs><filter id="glow"><feGaussianBlur stdDeviation="2.5" result="coloredBlur"/><feMerge><feMergeNode in="coloredBlur"/><feMergeNode in="SourceGraphic"/></feMerge></filter></defs><g class="axisWrapper"><circle class="gridCircle" r="150" style="fill: rgb(205, 205, 205); stroke: rgb(205, 205, 205); fill-opacity: 0.1; filter: url(&quot;#glow&quot;);"/><circle class="gridCircle" r="120" style="fill: rgb(205, 205, 205); stroke: rgb(205, 205, 205); fill-opacity: 0.1; filter: url(&quot;#glow&quot;);"/><circle class="gridCircle" r="90" style="fill: rgb(205, 205, 205); stroke: rgb(205, 205, 205); fill-opacity: 0.1; filter: url(&quot;#glow&quot;);"/><circle class="gridCircle" r="60" style="fill: rgb(205, 205, 205); stroke: rgb(205, 205, 205); fill-opacity: 0.1; filter: url(&quot;#glow&quot;);"/><circle class="gridCircle" r="30" style="fill: rgb(205, 205, 205); stroke: rgb(205, 205, 205); fill-opacity: 0.1; filter: url(&quot;#glow&quot;);"/><text class="axisLabel" x="4" y="-150" dy="0.4em" fill="#737373" style="font-size: 10px;">80%</text><text class="axisLabel" x="4" y="-120" dy="0.4em" fill="#737373" style="font-size: 10px;">64%</text><text class="axisLabel" x="4" y="-90" dy="0.4em" fill="#737373" style="font-size: 10px;">48%</text><text class="axisLabel" x="4" y="-60" dy="0.4em" fill="#737373" style="font-size: 10px;">32%</text><text class="axisLabel" x="4" y="-30" dy="0.4em" fill="#737373" style="font-size: 10px;">16%</text><g class="axis"><line x1="0" y1="0" x2="1.0103336092965664e-14" y2="-165" class="line" style="stroke: white; stroke-width: 2px;"/><text class="legend" font-size="11px" text-anchor="middle" dy="0.35em" x="1.056257864264592e-14" y="-172.5">Liderazgo</text></g><g class="axis"><line x1="0" y1="0" x2="142.89419162443238" y2="-82.5" class="line" style="stroke: white; stroke-width: 2px;"/><text class="legend" font-size="11px" text-anchor="middle" dy="0.35em" x="149.38938215281567" y="-86.25">Arquitectura de Software</text></g><g class="axis"><line x1="0" y1="0" x2="142.89419162443238" y2="82.49999999999997" class="line" style="stroke: white; stroke-width: 2px;"/><text class="legend" font-size="11px" text-anchor="middle" dy="0.35em" x="149.38938215281567" y="86.24999999999997">Ciencia de datos</text></g><g class="axis"><line x1="0" y1="0" x2="1.0103336092965664e-14" y2="165" class="line" style="stroke: white; stroke-width: 2px;"/><text class="legend" font-size="11px" text-anchor="middle" dy="0.35em" x="1.056257864264592e-14" y="172.5">Diseño e Interfaz</text></g><g class="axis"><line x1="0" y1="0" x2="-142.89419162443235" y2="82.50000000000006" class="line" style="stroke: white; stroke-width: 2px;"/><text class="legend" font-size="11px" text-anchor="middle" dy="0.35em" x="-149.38938215281564" y="86.25000000000006">Desarrollo Front-end</text></g><g class="axis"><line x1="0" y1="0" x2="-142.89419162443244" y2="-82.4999999999999" class="line" style="stroke: white; stroke-width: 2px;"/><text class="legend" font-size="11px" text-anchor="middle" dy="0.35em" x="-149.38938215281573" y="-86.2499999999999">Desarrollo Backend</text></g></g><g class="radarWrapper"><path class="radarArea" d="M32.47595264191645,-18.750000000000004C37.888611415569194,-9.375000000000005,37.888611415569194,12.499999999999993,32.47595264191645,18.749999999999993C27.06329386826371,24.999999999999993,27.063293868263706,9.374999999999988,2.296212748401287e-15,18.75C-27.0632938682637,28.125000000000014,-116.37216363353392,85.93750000000006,-129.90381056766577,75.00000000000007C-143.43545750179763,64.06250000000009,-102.84051669940212,-28.124999999999925,-81.18988160479115,-46.874999999999936C-59.53924651018019,-65.62499999999994,-18.9443057077846,-42.187499999999986,0,-37.5C18.9443057077846,-32.812500000000014,27.06329386826371,-28.125,32.47595264191645,-18.750000000000004" style="fill: rgb(50, 205, 150); fill-opacity: 0.35;"/><path class="radarStroke" d="M32.47595264191645,-18.750000000000004C37.888611415569194,-9.375000000000005,37.888611415569194,12.499999999999993,32.47595264191645,18.749999999999993C27.06329386826371,24.999999999999993,27.063293868263706,9.374999999999988,2.296212748401287e-15,18.75C-27.0632938682637,28.125000000000014,-116.37216363353392,85.93750000000006,-129.90381056766577,75.00000000000007C-143.43545750179763,64.06250000000009,-102.84051669940212,-28.124999999999925,-81.18988160479115,-46.874999999999936C-59.53924651018019,-65.62499999999994,-18.9443057077846,-42.187499999999986,0,-37.5C18.9443057077846,-32.812500000000014,27.06329386826371,-28.125,32.47595264191645,-18.750000000000004" style="stroke-width: 2px; stroke: rgb(50, 205, 150); fill: none; filter: url(&quot;#glow&quot;);"/><circle class="radarCircle" r="4" cx="2.296212748401287e-15" cy="-37.5" style="fill: rgb(115, 115, 115); fill-opacity: 0.8;"/><circle class="radarCircle" r="4" cx="32.47595264191645" cy="-18.75" style="fill: rgb(115, 115, 115); fill-opacity: 0.8;"/><circle class="radarCircle" r="4" cx="32.47595264191645" cy="18.749999999999993" style="fill: rgb(115, 115, 115); fill-opacity: 0.8;"/><circle class="radarCircle" r="4" cx="1.1481063742006436e-15" cy="18.75" style="fill: rgb(115, 115, 115); fill-opacity: 0.8;"/><circle class="radarCircle" r="4" cx="-129.90381056766577" cy="75.00000000000006" style="fill: rgb(115, 115, 115); fill-opacity: 0.8;"/><circle class="radarCircle" r="4" cx="-81.18988160479115" cy="-46.87499999999994" style="fill: rgb(115, 115, 115); fill-opacity: 0.8;"/></g><g class="radarCircleWrapper"><circle class="radarInvisibleCircle" r="6" cx="2.296212748401287e-15" cy="-37.5" style="fill: none; pointer-events: all;"/><circle class="radarInvisibleCircle" r="6" cx="32.47595264191645" cy="-18.75" style="fill: none; pointer-events: all;"/><circle class="radarInvisibleCircle" r="6" cx="32.47595264191645" cy="18.749999999999993" style="fill: none; pointer-events: all;"/><circle class="radarInvisibleCircle" r="6" cx="1.1481063742006436e-15" cy="18.75" style="fill: none; pointer-events: all;"/><circle class="radarInvisibleCircle" r="6" cx="-129.90381056766577" cy="75.00000000000006" style="fill: none; pointer-events: all;"/><circle class="radarInvisibleCircle" r="6" cx="-81.18988160479115" cy="-46.87499999999994" style="fill: none; pointer-events: all;"/></g><text class="tooltip" x="-91.18988160479115" y="-56.87499999999994" style="opacity: 0;">50%</text></g></svg>