<svg xmlns="http://www.w3.org/2000/svg" version="1.1" xmlns:xlink="http://www.w3.org/1999/xlink" xmlns:svgjs="http://svgjs.com/svgjs" width="1440" height="560" preserveAspectRatio="none" viewBox="0 0 1440 560"><g mask="url(&quot;#SvgjsMask1241&quot;)" fill="none"><rect width="1440" height="560" x="0" y="0" fill="url(#SvgjsLinearGradient1242)"></rect><path d="M96.15 75.1L161.11 112.6L161.11 187.6L96.15 225.1L31.2 187.6L31.2 112.6zM31.2 187.6L96.15 225.1L96.15 300.1L31.2 337.6L-33.75 300.1L-33.75 225.1zM96.15 300.1L161.11 337.6L161.11 412.6L96.15 450.1L31.2 412.6L31.2 337.6zM161.11 -37.4L226.06 0.1L226.06 75.1L161.11 112.6L96.15 75.1L96.15 0.1zM161.11 187.6L226.06 225.1L226.06 300.1L161.11 337.6L96.15 300.1L96.15 225.1zM291.01 187.6L355.97 225.1L355.97 300.1L291.01 337.6L226.06 300.1L226.06 225.1zM485.88 75.1L550.83 112.6L550.83 187.6L485.88 225.1L420.92 187.6L420.92 112.6zM485.88 525.1L550.83 562.6L550.83 637.6L485.88 675.1L420.92 637.6L420.92 562.6zM550.83 -37.4L615.78 0.1L615.78 75.1L550.83 112.6L485.88 75.1L485.88 0.1zM550.83 187.6L615.78 225.1L615.78 300.1L550.83 337.6L485.88 300.1L485.88 225.1zM550.83 412.6L615.78 450.1L615.78 525.1L550.83 562.6L485.88 525.1L485.88 450.1zM745.69 75.1L810.65 112.6L810.65 187.6L745.69 225.1L680.74 187.6L680.74 112.6zM745.69 300.1L810.65 337.6L810.65 412.6L745.69 450.1L680.74 412.6L680.74 337.6zM810.64 -37.4L875.6 0.1L875.6 75.1L810.64 112.6L745.69 75.1L745.69 0.1zM875.6 300.1L940.55 337.6L940.55 412.6L875.6 450.1L810.64 412.6L810.64 337.6zM940.55 -37.4L1005.51 0.1L1005.51 75.1L940.55 112.6L875.6 75.1L875.6 0.1zM940.55 412.6L1005.51 450.1L1005.51 525.1L940.55 562.6L875.6 525.1L875.6 450.1zM1005.51 525.1L1070.46 562.6L1070.46 637.6L1005.51 675.1L940.55 637.6L940.55 562.6zM1070.46 -37.4L1135.41 0.1L1135.41 75.1L1070.46 112.6L1005.51 75.1L1005.51 0.1zM1135.41 300.1L1200.37 337.6L1200.37 412.6L1135.41 450.1L1070.46 412.6L1070.46 337.6zM1135.41 525.1L1200.37 562.6L1200.37 637.6L1135.41 675.1L1070.46 637.6L1070.46 562.6zM1200.37 -37.4L1265.32 0.1L1265.32 75.1L1200.37 112.6L1135.41 75.1L1135.41 0.1zM1265.32 300.1L1330.27 337.6L1330.27 412.6L1265.32 450.1L1200.37 412.6L1200.37 337.6zM1200.37 412.6L1265.32 450.1L1265.32 525.1L1200.37 562.6L1135.41 525.1L1135.41 450.1zM1330.28 -37.4L1395.23 0.1L1395.23 75.1L1330.28 112.6L1265.32 75.1L1265.32 0.1zM1395.23 525.1L1460.18 562.6L1460.18 637.6L1395.23 675.1L1330.28 637.6L1330.28 562.6zM1525.14 75.1L1590.09 112.6L1590.09 187.6L1525.14 225.1L1460.18 187.6L1460.18 112.6zM1525.14 525.1L1590.09 562.6L1590.09 637.6L1525.14 675.1L1460.18 637.6L1460.18 562.6z" stroke="rgba(0, 70, 122, 1)" stroke-width="2"></path><path d="M88.65 75.1 a7.5 7.5 0 1 0 15 0 a7.5 7.5 0 1 0 -15 0zM153.61 112.6 a7.5 7.5 0 1 0 15 0 a7.5 7.5 0 1 0 -15 0zM153.61 187.6 a7.5 7.5 0 1 0 15 0 a7.5 7.5 0 1 0 -15 0zM88.65 225.1 a7.5 7.5 0 1 0 15 0 a7.5 7.5 0 1 0 -15 0zM23.7 187.6 a7.5 7.5 0 1 0 15 0 a7.5 7.5 0 1 0 -15 0zM23.7 112.6 a7.5 7.5 0 1 0 15 0 a7.5 7.5 0 1 0 -15 0zM88.65 300.1 a7.5 7.5 0 1 0 15 0 a7.5 7.5 0 1 0 -15 0zM23.7 337.6 a7.5 7.5 0 1 0 15 0 a7.5 7.5 0 1 0 -15 0zM-41.25 300.1 a7.5 7.5 0 1 0 15 0 a7.5 7.5 0 1 0 -15 0zM-41.25 225.1 a7.5 7.5 0 1 0 15 0 a7.5 7.5 0 1 0 -15 0zM153.61 337.6 a7.5 7.5 0 1 0 15 0 a7.5 7.5 0 1 0 -15 0zM153.61 412.6 a7.5 7.5 0 1 0 15 0 a7.5 7.5 0 1 0 -15 0zM88.65 450.1 a7.5 7.5 0 1 0 15 0 a7.5 7.5 0 1 0 -15 0zM23.7 412.6 a7.5 7.5 0 1 0 15 0 a7.5 7.5 0 1 0 -15 0zM153.61 -37.4 a7.5 7.5 0 1 0 15 0 a7.5 7.5 0 1 0 -15 0zM218.56 0.1 a7.5 7.5 0 1 0 15 0 a7.5 7.5 0 1 0 -15 0zM218.56 75.1 a7.5 7.5 0 1 0 15 0 a7.5 7.5 0 1 0 -15 0zM88.65 0.1 a7.5 7.5 0 1 0 15 0 a7.5 7.5 0 1 0 -15 0zM218.56 225.1 a7.5 7.5 0 1 0 15 0 a7.5 7.5 0 1 0 -15 0zM218.56 300.1 a7.5 7.5 0 1 0 15 0 a7.5 7.5 0 1 0 -15 0zM283.51 187.6 a7.5 7.5 0 1 0 15 0 a7.5 7.5 0 1 0 -15 0zM348.47 225.1 a7.5 7.5 0 1 0 15 0 a7.5 7.5 0 1 0 -15 0zM348.47 300.1 a7.5 7.5 0 1 0 15 0 a7.5 7.5 0 1 0 -15 0zM283.51 337.6 a7.5 7.5 0 1 0 15 0 a7.5 7.5 0 1 0 -15 0zM478.38 75.1 a7.5 7.5 0 1 0 15 0 a7.5 7.5 0 1 0 -15 0zM543.33 112.6 a7.5 7.5 0 1 0 15 0 a7.5 7.5 0 1 0 -15 0zM543.33 187.6 a7.5 7.5 0 1 0 15 0 a7.5 7.5 0 1 0 -15 0zM478.38 225.1 a7.5 7.5 0 1 0 15 0 a7.5 7.5 0 1 0 -15 0zM413.42 187.6 a7.5 7.5 0 1 0 15 0 a7.5 7.5 0 1 0 -15 0zM413.42 112.6 a7.5 7.5 0 1 0 15 0 a7.5 7.5 0 1 0 -15 0zM478.38 525.1 a7.5 7.5 0 1 0 15 0 a7.5 7.5 0 1 0 -15 0zM543.33 562.6 a7.5 7.5 0 1 0 15 0 a7.5 7.5 0 1 0 -15 0zM543.33 637.6 a7.5 7.5 0 1 0 15 0 a7.5 7.5 0 1 0 -15 0zM478.38 675.1 a7.5 7.5 0 1 0 15 0 a7.5 7.5 0 1 0 -15 0zM413.42 637.6 a7.5 7.5 0 1 0 15 0 a7.5 7.5 0 1 0 -15 0zM413.42 562.6 a7.5 7.5 0 1 0 15 0 a7.5 7.5 0 1 0 -15 0zM543.33 -37.4 a7.5 7.5 0 1 0 15 0 a7.5 7.5 0 1 0 -15 0zM608.28 0.1 a7.5 7.5 0 1 0 15 0 a7.5 7.5 0 1 0 -15 0zM608.28 75.1 a7.5 7.5 0 1 0 15 0 a7.5 7.5 0 1 0 -15 0zM478.38 0.1 a7.5 7.5 0 1 0 15 0 a7.5 7.5 0 1 0 -15 0zM608.28 225.1 a7.5 7.5 0 1 0 15 0 a7.5 7.5 0 1 0 -15 0zM608.28 300.1 a7.5 7.5 0 1 0 15 0 a7.5 7.5 0 1 0 -15 0zM543.33 337.6 a7.5 7.5 0 1 0 15 0 a7.5 7.5 0 1 0 -15 0zM478.38 300.1 a7.5 7.5 0 1 0 15 0 a7.5 7.5 0 1 0 -15 0zM543.33 412.6 a7.5 7.5 0 1 0 15 0 a7.5 7.5 0 1 0 -15 0zM608.28 450.1 a7.5 7.5 0 1 0 15 0 a7.5 7.5 0 1 0 -15 0zM608.28 525.1 a7.5 7.5 0 1 0 15 0 a7.5 7.5 0 1 0 -15 0zM478.38 450.1 a7.5 7.5 0 1 0 15 0 a7.5 7.5 0 1 0 -15 0zM738.19 75.1 a7.5 7.5 0 1 0 15 0 a7.5 7.5 0 1 0 -15 0zM803.15 112.6 a7.5 7.5 0 1 0 15 0 a7.5 7.5 0 1 0 -15 0zM803.15 187.6 a7.5 7.5 0 1 0 15 0 a7.5 7.5 0 1 0 -15 0zM738.19 225.1 a7.5 7.5 0 1 0 15 0 a7.5 7.5 0 1 0 -15 0zM673.24 187.6 a7.5 7.5 0 1 0 15 0 a7.5 7.5 0 1 0 -15 0zM673.24 112.6 a7.5 7.5 0 1 0 15 0 a7.5 7.5 0 1 0 -15 0zM738.19 300.1 a7.5 7.5 0 1 0 15 0 a7.5 7.5 0 1 0 -15 0zM803.15 337.6 a7.5 7.5 0 1 0 15 0 a7.5 7.5 0 1 0 -15 0zM803.15 412.6 a7.5 7.5 0 1 0 15 0 a7.5 7.5 0 1 0 -15 0zM738.19 450.1 a7.5 7.5 0 1 0 15 0 a7.5 7.5 0 1 0 -15 0zM673.24 412.6 a7.5 7.5 0 1 0 15 0 a7.5 7.5 0 1 0 -15 0zM673.24 337.6 a7.5 7.5 0 1 0 15 0 a7.5 7.5 0 1 0 -15 0zM803.14 -37.4 a7.5 7.5 0 1 0 15 0 a7.5 7.5 0 1 0 -15 0zM868.1 0.1 a7.5 7.5 0 1 0 15 0 a7.5 7.5 0 1 0 -15 0zM868.1 75.1 a7.5 7.5 0 1 0 15 0 a7.5 7.5 0 1 0 -15 0zM803.14 112.6 a7.5 7.5 0 1 0 15 0 a7.5 7.5 0 1 0 -15 0zM738.19 0.1 a7.5 7.5 0 1 0 15 0 a7.5 7.5 0 1 0 -15 0zM868.1 300.1 a7.5 7.5 0 1 0 15 0 a7.5 7.5 0 1 0 -15 0zM933.05 337.6 a7.5 7.5 0 1 0 15 0 a7.5 7.5 0 1 0 -15 0zM933.05 412.6 a7.5 7.5 0 1 0 15 0 a7.5 7.5 0 1 0 -15 0zM868.1 450.1 a7.5 7.5 0 1 0 15 0 a7.5 7.5 0 1 0 -15 0zM803.14 412.6 a7.5 7.5 0 1 0 15 0 a7.5 7.5 0 1 0 -15 0zM803.14 337.6 a7.5 7.5 0 1 0 15 0 a7.5 7.5 0 1 0 -15 0zM933.05 -37.4 a7.5 7.5 0 1 0 15 0 a7.5 7.5 0 1 0 -15 0zM998.01 0.1 a7.5 7.5 0 1 0 15 0 a7.5 7.5 0 1 0 -15 0zM998.01 75.1 a7.5 7.5 0 1 0 15 0 a7.5 7.5 0 1 0 -15 0zM933.05 112.6 a7.5 7.5 0 1 0 15 0 a7.5 7.5 0 1 0 -15 0zM998.01 450.1 a7.5 7.5 0 1 0 15 0 a7.5 7.5 0 1 0 -15 0zM998.01 525.1 a7.5 7.5 0 1 0 15 0 a7.5 7.5 0 1 0 -15 0zM933.05 562.6 a7.5 7.5 0 1 0 15 0 a7.5 7.5 0 1 0 -15 0zM868.1 525.1 a7.5 7.5 0 1 0 15 0 a7.5 7.5 0 1 0 -15 0zM1062.96 562.6 a7.5 7.5 0 1 0 15 0 a7.5 7.5 0 1 0 -15 0zM1062.96 637.6 a7.5 7.5 0 1 0 15 0 a7.5 7.5 0 1 0 -15 0zM998.01 675.1 a7.5 7.5 0 1 0 15 0 a7.5 7.5 0 1 0 -15 0zM933.05 637.6 a7.5 7.5 0 1 0 15 0 a7.5 7.5 0 1 0 -15 0zM1062.96 -37.4 a7.5 7.5 0 1 0 15 0 a7.5 7.5 0 1 0 -15 0zM1127.91 0.1 a7.5 7.5 0 1 0 15 0 a7.5 7.5 0 1 0 -15 0zM1127.91 75.1 a7.5 7.5 0 1 0 15 0 a7.5 7.5 0 1 0 -15 0zM1062.96 112.6 a7.5 7.5 0 1 0 15 0 a7.5 7.5 0 1 0 -15 0zM1127.91 300.1 a7.5 7.5 0 1 0 15 0 a7.5 7.5 0 1 0 -15 0zM1192.87 337.6 a7.5 7.5 0 1 0 15 0 a7.5 7.5 0 1 0 -15 0zM1192.87 412.6 a7.5 7.5 0 1 0 15 0 a7.5 7.5 0 1 0 -15 0zM1127.91 450.1 a7.5 7.5 0 1 0 15 0 a7.5 7.5 0 1 0 -15 0zM1062.96 412.6 a7.5 7.5 0 1 0 15 0 a7.5 7.5 0 1 0 -15 0zM1062.96 337.6 a7.5 7.5 0 1 0 15 0 a7.5 7.5 0 1 0 -15 0zM1127.91 525.1 a7.5 7.5 0 1 0 15 0 a7.5 7.5 0 1 0 -15 0zM1192.87 562.6 a7.5 7.5 0 1 0 15 0 a7.5 7.5 0 1 0 -15 0zM1192.87 637.6 a7.5 7.5 0 1 0 15 0 a7.5 7.5 0 1 0 -15 0zM1127.91 675.1 a7.5 7.5 0 1 0 15 0 a7.5 7.5 0 1 0 -15 0zM1192.87 -37.4 a7.5 7.5 0 1 0 15 0 a7.5 7.5 0 1 0 -15 0zM1257.82 0.1 a7.5 7.5 0 1 0 15 0 a7.5 7.5 0 1 0 -15 0zM1257.82 75.1 a7.5 7.5 0 1 0 15 0 a7.5 7.5 0 1 0 -15 0zM1192.87 112.6 a7.5 7.5 0 1 0 15 0 a7.5 7.5 0 1 0 -15 0zM1257.82 300.1 a7.5 7.5 0 1 0 15 0 a7.5 7.5 0 1 0 -15 0zM1322.77 337.6 a7.5 7.5 0 1 0 15 0 a7.5 7.5 0 1 0 -15 0zM1322.77 412.6 a7.5 7.5 0 1 0 15 0 a7.5 7.5 0 1 0 -15 0zM1257.82 450.1 a7.5 7.5 0 1 0 15 0 a7.5 7.5 0 1 0 -15 0zM1257.82 525.1 a7.5 7.5 0 1 0 15 0 a7.5 7.5 0 1 0 -15 0zM1322.78 -37.4 a7.5 7.5 0 1 0 15 0 a7.5 7.5 0 1 0 -15 0zM1387.73 0.1 a7.5 7.5 0 1 0 15 0 a7.5 7.5 0 1 0 -15 0zM1387.73 75.1 a7.5 7.5 0 1 0 15 0 a7.5 7.5 0 1 0 -15 0zM1322.78 112.6 a7.5 7.5 0 1 0 15 0 a7.5 7.5 0 1 0 -15 0zM1387.73 525.1 a7.5 7.5 0 1 0 15 0 a7.5 7.5 0 1 0 -15 0zM1452.68 562.6 a7.5 7.5 0 1 0 15 0 a7.5 7.5 0 1 0 -15 0zM1452.68 637.6 a7.5 7.5 0 1 0 15 0 a7.5 7.5 0 1 0 -15 0zM1387.73 675.1 a7.5 7.5 0 1 0 15 0 a7.5 7.5 0 1 0 -15 0zM1322.78 637.6 a7.5 7.5 0 1 0 15 0 a7.5 7.5 0 1 0 -15 0zM1322.78 562.6 a7.5 7.5 0 1 0 15 0 a7.5 7.5 0 1 0 -15 0zM1517.64 75.1 a7.5 7.5 0 1 0 15 0 a7.5 7.5 0 1 0 -15 0zM1582.59 112.6 a7.5 7.5 0 1 0 15 0 a7.5 7.5 0 1 0 -15 0zM1582.59 187.6 a7.5 7.5 0 1 0 15 0 a7.5 7.5 0 1 0 -15 0zM1517.64 225.1 a7.5 7.5 0 1 0 15 0 a7.5 7.5 0 1 0 -15 0zM1452.68 187.6 a7.5 7.5 0 1 0 15 0 a7.5 7.5 0 1 0 -15 0zM1452.68 112.6 a7.5 7.5 0 1 0 15 0 a7.5 7.5 0 1 0 -15 0zM1517.64 525.1 a7.5 7.5 0 1 0 15 0 a7.5 7.5 0 1 0 -15 0zM1582.59 562.6 a7.5 7.5 0 1 0 15 0 a7.5 7.5 0 1 0 -15 0zM1582.59 637.6 a7.5 7.5 0 1 0 15 0 a7.5 7.5 0 1 0 -15 0zM1517.64 675.1 a7.5 7.5 0 1 0 15 0 a7.5 7.5 0 1 0 -15 0z" fill="rgba(0, 70, 122, 1)"></path><path d="M3 -22.23L46.3 2.77L46.3 52.77L3 77.77L-40.3 52.77L-40.3 2.77zM46.3 202.77L89.61 227.77L89.61 277.77L46.3 302.77L3 277.77L3 227.77zM46.3 352.77L89.61 377.77L89.61 427.77L46.3 452.77L3 427.77L3 377.77zM89.61 -22.23L132.91 2.77L132.91 52.77L89.61 77.77L46.3 52.77L46.3 2.77zM89.61 127.77L132.91 152.77L132.91 202.77L89.61 227.77L46.3 202.77L46.3 152.77zM132.91 202.77L176.21 227.77L176.21 277.77L132.91 302.77L89.61 277.77L89.61 227.77zM219.51 52.77L262.81 77.77L262.81 127.77L219.51 152.77L176.21 127.77L176.21 77.77zM176.21 277.77L219.51 302.77L219.51 352.77L176.21 377.77L132.91 352.77L132.91 302.77zM262.81 127.77L306.12 152.77L306.12 202.77L262.81 227.77L219.51 202.77L219.51 152.77zM306.12 502.77L349.42 527.77L349.42 577.77L306.12 602.77L262.81 577.77L262.81 527.77zM349.42 -22.23L392.72 2.77L392.72 52.77L349.42 77.77L306.12 52.77L306.12 2.77zM392.72 52.77L436.03 77.77L436.03 127.77L392.72 152.77L349.42 127.77L349.42 77.77zM392.72 502.77L436.03 527.77L436.03 577.77L392.72 602.77L349.42 577.77L349.42 527.77zM436.03 277.77L479.33 302.77L479.33 352.77L436.03 377.77L392.72 352.77L392.72 302.77zM522.63 277.77L565.93 302.77L565.93 352.77L522.63 377.77L479.33 352.77L479.33 302.77zM565.93 352.77L609.24 377.77L609.24 427.77L565.93 452.77L522.63 427.77L522.63 377.77zM652.54 52.77L695.84 77.77L695.84 127.77L652.54 152.77L609.24 127.77L609.24 77.77zM609.24 127.77L652.54 152.77L652.54 202.77L609.24 227.77L565.93 202.77L565.93 152.77zM652.54 202.77L695.84 227.77L695.84 277.77L652.54 302.77L609.24 277.77L609.24 227.77zM609.24 427.77L652.54 452.77L652.54 502.77L609.24 527.77L565.93 502.77L565.93 452.77zM652.54 502.77L695.84 527.77L695.84 577.77L652.54 602.77L609.24 577.77L609.24 527.77zM695.84 -22.23L739.14 2.77L739.14 52.77L695.84 77.77L652.54 52.77L652.54 2.77zM739.14 52.77L782.45 77.77L782.45 127.77L739.14 152.77L695.84 127.77L695.84 77.77zM695.84 127.77L739.14 152.77L739.14 202.77L695.84 227.77L652.54 202.77L652.54 152.77zM739.14 352.77L782.45 377.77L782.45 427.77L739.14 452.77L695.84 427.77L695.84 377.77zM695.84 427.77L739.14 452.77L739.14 502.77L695.84 527.77L652.54 502.77L652.54 452.77zM782.45 -22.23L825.75 2.77L825.75 52.77L782.45 77.77L739.14 52.77L739.14 2.77zM825.75 52.77L869.05 77.77L869.05 127.77L825.75 152.77L782.45 127.77L782.45 77.77zM782.45 127.77L825.75 152.77L825.75 202.77L782.45 227.77L739.14 202.77L739.14 152.77zM825.75 202.77L869.05 227.77L869.05 277.77L825.75 302.77L782.45 277.77L782.45 227.77zM782.45 277.77L825.75 302.77L825.75 352.77L782.45 377.77L739.14 352.77L739.14 302.77zM782.45 427.77L825.75 452.77L825.75 502.77L782.45 527.77L739.14 502.77L739.14 452.77zM825.75 502.77L869.05 527.77L869.05 577.77L825.75 602.77L782.45 577.77L782.45 527.77zM912.35 202.77L955.66 227.77L955.66 277.77L912.35 302.77L869.05 277.77L869.05 227.77zM869.05 277.77L912.35 302.77L912.35 352.77L869.05 377.77L825.75 352.77L825.75 302.77zM912.35 352.77L955.66 377.77L955.66 427.77L912.35 452.77L869.05 427.77L869.05 377.77zM869.05 427.77L912.35 452.77L912.35 502.77L869.05 527.77L825.75 502.77L825.75 452.77zM912.35 502.77L955.66 527.77L955.66 577.77L912.35 602.77L869.05 577.77L869.05 527.77zM998.96 52.77L1042.26 77.77L1042.26 127.77L998.96 152.77L955.66 127.77L955.66 77.77zM998.96 202.77L1042.26 227.77L1042.26 277.77L998.96 302.77L955.66 277.77L955.66 227.77zM955.66 277.77L998.96 302.77L998.96 352.77L955.66 377.77L912.35 352.77L912.35 302.77zM998.96 502.77L1042.26 527.77L1042.26 577.77L998.96 602.77L955.66 577.77L955.66 527.77zM1085.56 52.77L1128.87 77.77L1128.87 127.77L1085.56 152.77L1042.26 127.77L1042.26 77.77zM1085.56 202.77L1128.87 227.77L1128.87 277.77L1085.56 302.77L1042.26 277.77L1042.26 227.77zM1042.26 277.77L1085.56 302.77L1085.56 352.77L1042.26 377.77L998.96 352.77L998.96 302.77zM1085.56 352.77L1128.87 377.77L1128.87 427.77L1085.56 452.77L1042.26 427.77L1042.26 377.77zM1042.26 427.77L1085.56 452.77L1085.56 502.77L1042.26 527.77L998.96 502.77L998.96 452.77zM1085.56 502.77L1128.87 527.77L1128.87 577.77L1085.56 602.77L1042.26 577.77L1042.26 527.77zM1128.87 -22.23L1172.17 2.77L1172.17 52.77L1128.87 77.77L1085.56 52.77L1085.56 2.77zM1172.17 52.77L1215.47 77.77L1215.47 127.77L1172.17 152.77L1128.87 127.77L1128.87 77.77zM1128.87 127.77L1172.17 152.77L1172.17 202.77L1128.87 227.77L1085.56 202.77L1085.56 152.77zM1128.87 277.77L1172.17 302.77L1172.17 352.77L1128.87 377.77L1085.56 352.77L1085.56 302.77zM1172.17 352.77L1215.47 377.77L1215.47 427.77L1172.17 452.77L1128.87 427.77L1128.87 377.77zM1128.87 427.77L1172.17 452.77L1172.17 502.77L1128.87 527.77L1085.56 502.77L1085.56 452.77zM1215.47 277.77L1258.77 302.77L1258.77 352.77L1215.47 377.77L1172.17 352.77L1172.17 302.77zM1258.77 502.77L1302.08 527.77L1302.08 577.77L1258.77 602.77L1215.47 577.77L1215.47 527.77zM1302.08 -22.23L1345.38 2.77L1345.38 52.77L1302.08 77.77L1258.77 52.77L1258.77 2.77zM1345.38 52.77L1388.68 77.77L1388.68 127.77L1345.38 152.77L1302.08 127.77L1302.08 77.77zM1302.08 127.77L1345.38 152.77L1345.38 202.77L1302.08 227.77L1258.77 202.77L1258.77 152.77zM1302.08 427.77L1345.38 452.77L1345.38 502.77L1302.08 527.77L1258.77 502.77L1258.77 452.77zM1345.38 502.77L1388.68 527.77L1388.68 577.77L1345.38 602.77L1302.08 577.77L1302.08 527.77z" stroke="rgba(99, 178, 253, 0.8)" stroke-width="2"></path></g><defs><mask id="SvgjsMask1241"><rect width="1440" height="560" fill="#ffffff"></rect></mask><linearGradient x1="15.28%" y1="139.29%" x2="84.72%" y2="-39.29%" gradientUnits="userSpaceOnUse" id="SvgjsLinearGradient1242"><stop stop-color="rgba(0, 78, 155, 1)" offset="0"></stop><stop stop-color="rgba(0, 94, 167, 1)" offset="0.2"></stop><stop stop-color="rgba(0, 152, 212, 1)" offset="0.91"></stop><stop stop-color="rgba(0, 160, 218, 1)" offset="1"></stop></linearGradient></defs></svg>